<svg xmlns="http://www.w3.org/2000/svg" width="46" height="43" viewBox="0 0 46 43">
  <defs>
    <style>
      .cls-1 {
        fill: #fff;
      }
    </style>
  </defs>
  <g id="Group_11" data-name="Group 11" transform="translate(-2564 -401)">
    <path id="Ellipse_10" data-name="Ellipse 10" class="cls-1" d="M11.5,3A8.5,8.5,0,1,0,20,11.5,8.51,8.51,0,0,0,11.5,3m0-3A11.5,11.5,0,1,1,0,11.5,11.5,11.5,0,0,1,11.5,0Z" transform="translate(2575.5 401)"/>
    <path id="Ellipse_11" data-name="Ellipse 11" class="cls-1" d="M11.5,3A8.5,8.5,0,1,0,20,11.5,8.51,8.51,0,0,0,11.5,3m0-3A11.5,11.5,0,1,1,0,11.5,11.5,11.5,0,0,1,11.5,0Z" transform="translate(2564 421)"/>
    <path id="Ellipse_12" data-name="Ellipse 12" class="cls-1" d="M11.5,3A8.5,8.5,0,1,0,20,11.5,8.51,8.51,0,0,0,11.5,3m0-3A11.5,11.5,0,1,1,0,11.5,11.5,11.5,0,0,1,11.5,0Z" transform="translate(2587 421)"/>
  </g>
</svg>
