<svg xmlns="http://www.w3.org/2000/svg" width="34" height="34" viewBox="0 0 34 34">
  <defs>
    <style>
      .cls-1 {
        fill: none;
        stroke: #fff;
        stroke-width: 3px;
      }

      .cls-2 {
        fill: #fff;
      }
    </style>
  </defs>
  <g id="Voltage" transform="translate(1.5 1.5)">
    <circle id="Ellipse_6" data-name="Ellipse 6" class="cls-1" cx="15.5" cy="15.5" r="15.5"/>
    <path id="Path_11" data-name="Path 11" class="cls-2" d="M4.609-7.67a3.875,3.875,0,0,0-1.775.49A7.482,7.482,0,0,0,1.074-5.9V-9.278a5.186,5.186,0,0,1,3.867-1.594,8.876,8.876,0,0,1,2.077.234,14.34,14.34,0,0,1,2.107.7,9.186,9.186,0,0,0,3.429.8A4.013,4.013,0,0,0,14.307-9.6a6.466,6.466,0,0,0,1.767-1.3v3.377A5.124,5.124,0,0,1,12.207-5.93a9.255,9.255,0,0,1-1.9-.19,14.389,14.389,0,0,1-2.266-.731A9.22,9.22,0,0,0,4.609-7.67Z" transform="translate(6.926 23.901)"/>
  </g>
</svg>
