<?xml version="1.0" encoding="UTF-8" standalone="no"?>

<!--
SPDX-FileCopyrightText: 2022 Pepijn de Vos

SPDX-License-Identifier: CC-BY-NC-SA-4.0
-->

<svg
   width="29"
   height="29.5"
   viewBox="0 0 29 29.5"
   version="1.1"
   id="svg22"
   xmlns="http://www.w3.org/2000/svg"
   xmlns:svg="http://www.w3.org/2000/svg">
  <defs
     id="defs26" />
  <g
     transform="translate(-52.25 -773.75)"
     id="g20">
    <path
       d="M -1.25,-1.25 V 0 17 18.25 h 2.5 V 17 0 -1.25 Z"
       id="line2"
       transform="translate(60 780)" />
    <path
       d="M -1.25,-1.25 V 0 17 18.25 h 2.5 V 17 0 -1.25 Z"
       id="line4"
       transform="translate(66 780)" />
    <path
       d="M -1.25,-1.25 V 0 12 13.25 h 2.5 V 12 0 -1.25 Z"
       id="line6"
       transform="translate(80 780) rotate(90)" />
    <path
       d="M -1.25,-1.25 V 0 12 13.25 h 2.5 V 12 0 -1.25 Z"
       id="line8"
       transform="translate(80 797) rotate(90)" />
    <path
       d="M -1.25,-1.25 V 0 5 6.25 h 2.5 V 5 0 -1.25 Z"
       id="line10"
       transform="translate(80 797)" />
    <path
       d="M -1.25,-1.25 V 0 5 6.25 h 2.5 V 5 0 -1.25 Z"
       id="line12"
       transform="translate(80 775)" />
    <path
       d="M6,0l6,9H0Z"
       transform="translate(69 794.5) rotate(-90)"
       id="path14" />
    <path
       d="M -1.25,-1.25 V 0 5 6.25 h 2.5 V 5 0 -1.25 Z"
       id="line16"
       transform="translate(58.5 788.5) rotate(90)" />
    <path
       d="M -1.25,-1.25 V 0 12 13.25 h 2.5 V 12 0 -1.25 Z"
       id="line18"
       transform="translate(80 788.5) rotate(90)" />
  </g>
</svg>
