<?xml version="1.0" encoding="UTF-8" standalone="no"?>

<!--
SPDX-FileCopyrightText: 2022 Pepijn de Vos

SPDX-License-Identifier: CC-BY-NC-SA-4.0
-->

<svg
   width="22.5"
   height="29.5"
   viewBox="0 0 22.5 29.5"
   version="1.1"
   id="svg18"
   xmlns="http://www.w3.org/2000/svg"
   xmlns:svg="http://www.w3.org/2000/svg">
  <defs
     id="defs22" />
  <g
     transform="translate(-58.75 -773.75)"
     id="g16">
    <g
       id="line2"
       transform="translate(60 780)">
      <path
         d="M 0,0 V 17"
         id="path884" />
      <path
         d="M -1.25,-1.25 V 0 17 18.25 h 2.5 V 17 0 -1.25 Z"
         id="path886" />
    </g>
    <g
       id="line4"
       transform="translate(66 780)">
      <path
         d="M 0,0 V 17"
         id="path878" />
      <path
         d="M -1.25,-1.25 V 0 17 18.25 h 2.5 V 17 0 -1.25 Z"
         id="path880" />
    </g>
    <g
       id="line6"
       transform="translate(80 780) rotate(90)">
      <path
         d="M 0,0 V 12"
         id="path872" />
      <path
         d="M -1.25,-1.25 V 0 12 13.25 h 2.5 V 12 0 -1.25 Z"
         id="path874" />
    </g>
    <g
       id="line8"
       transform="translate(80 797) rotate(90)">
      <path
         d="M 0,0 V 12"
         id="path866" />
      <path
         d="M -1.25,-1.25 V 0 12 13.25 h 2.5 V 12 0 -1.25 Z"
         id="path868" />
    </g>
    <g
       id="line10"
       transform="translate(80 797)">
      <path
         d="M 0,0 V 5"
         id="path860" />
      <path
         d="M -1.25,-1.25 V 0 5 6.25 h 2.5 V 5 0 -1.25 Z"
         id="path862" />
    </g>
    <g
       id="line12"
       transform="translate(80 775)">
      <path
         d="M 0,0 V 5"
         id="path854" />
      <path
         d="M -1.25,-1.25 V 0 5 6.25 h 2.5 V 5 0 -1.25 Z"
         id="path856" />
    </g>
    <g
       id="path14"
       transform="translate(67 786) rotate(-90)">
      <path
         d="m 6,0 6,9 H 0 Z"
         id="path848" />
      <path
         d="m 6,-0.90234375 -0.4160156,0.625 L -0.93359375,9.5 H 12.933594 Z M 6,0.90234375 11.066406,8.5 H 0.93359375 Z"
         id="path850" />
    </g>
  </g>
</svg>
