<?xml version="1.0" encoding="UTF-8" standalone="no"?>
<svg
   width="29"
   height="29.5"
   viewBox="0 0 29 29.5"
   version="1.1"
   id="svg22"
   sodipodi:docname="Group 35.svg"
   inkscape:version="1.1.2 (0a00cf5339, 2022-02-04, custom)"
   xmlns:inkscape="http://www.inkscape.org/namespaces/inkscape"
   xmlns:sodipodi="http://sodipodi.sourceforge.net/DTD/sodipodi-0.dtd"
   xmlns="http://www.w3.org/2000/svg"
   xmlns:svg="http://www.w3.org/2000/svg">
  <defs
     id="defs26" />
  <sodipodi:namedview
     id="namedview24"
     pagecolor="#ffffff"
     bordercolor="#666666"
     borderopacity="1.0"
     inkscape:pageshadow="2"
     inkscape:pageopacity="0.0"
     inkscape:pagecheckerboard="0"
     showgrid="false"
     inkscape:zoom="29.59322"
     inkscape:cx="14.496564"
     inkscape:cy="14.733104"
     inkscape:window-width="3440"
     inkscape:window-height="1371"
     inkscape:window-x="1920"
     inkscape:window-y="32"
     inkscape:window-maximized="1"
     inkscape:current-layer="svg22" />
  <g
     transform="translate(-52.25 -773.75)"
     id="g20">
    <path
       d="M -1.25,-1.25 V 0 17 18.25 h 2.5 V 17 0 -1.25 Z"
       id="line2"
       transform="translate(60 780)" />
    <path
       d="M -1.25,-1.25 V 0 17 18.25 h 2.5 V 17 0 -1.25 Z"
       id="line4"
       transform="translate(66 780)" />
    <path
       d="M -1.25,-1.25 V 0 12 13.25 h 2.5 V 12 0 -1.25 Z"
       id="line6"
       transform="translate(80 780) rotate(90)" />
    <path
       d="M -1.25,-1.25 V 0 12 13.25 h 2.5 V 12 0 -1.25 Z"
       id="line8"
       transform="translate(80 797) rotate(90)" />
    <path
       d="M -1.25,-1.25 V 0 5 6.25 h 2.5 V 5 0 -1.25 Z"
       id="line10"
       transform="translate(80 797)" />
    <path
       d="M -1.25,-1.25 V 0 5 6.25 h 2.5 V 5 0 -1.25 Z"
       id="line12"
       transform="translate(80 775)" />
    <path
       d="M6,0l6,9H0Z"
       transform="translate(80 782.5) rotate(90)"
       id="path14" />
    <path
       d="M -1.25,-1.25 V 0 5 6.25 h 2.5 V 5 0 -1.25 Z"
       id="line16"
       transform="translate(58.5 788.5) rotate(90)" />
    <path
       d="M -1.25,-1.25 V 0 12 13.25 h 2.5 V 12 0 -1.25 Z"
       id="line18"
       transform="translate(80 788.5) rotate(90)" />
  </g>
</svg>
