<?xml version="1.0" encoding="UTF-8" standalone="no"?>
<svg
   width="22.37"
   height="28.6"
   viewBox="0 0 22.37 28.6"
   version="1.1"
   id="svg18"
   xmlns="http://www.w3.org/2000/svg"
   xmlns:svg="http://www.w3.org/2000/svg">
  <defs
     id="defs22" />
  <g
     transform="translate(-57.25 -774.45)"
     id="g16">
    <path
       d="M -1.25,-1.25 V 0 17 18.25 h 2.5 V 17 0 -1.25 Z"
       id="line2"
       transform="translate(66 780)" />
    <path
       d="M -1.25,-1.25 V 0 12 13.25 h 2.5 V 12 0 -1.25 Z"
       id="line4"
       transform="translate(77.892 781.5) rotate(60)" />
    <path
       d="M -1.25,-1.25 V 0 12 13.25 h 2.5 V 12 0 -1.25 Z"
       id="line6"
       transform="translate(67.5 790) rotate(-60)" />
    <path
       d="M -1.25,-1.25 V 0 5 6.25 h 2.5 V 5 0 -1.25 Z"
       id="line8"
       transform="translate(78.37 796.8)" />
    <path
       d="M5,0l5,7.5H0Z"
       transform="translate(72.499 790.41) rotate(-120)"
       id="path10" />
    <path
       d="M -1.25,-1.25 V 0 5 6.25 h 2.5 V 5 0 -1.25 Z"
       id="line12"
       transform="translate(63.5 788.5) rotate(90)" />
    <path
       d="M -1.25,-1.25 V 0 5 6.25 h 2.5 V 5 0 -1.25 Z"
       id="line14"
       transform="translate(78.37 775.7)" />
  </g>
</svg>
