<?xml version="1.0" encoding="UTF-8" standalone="no"?>

<!--
SPDX-FileCopyrightText: 2022 Pepijn de Vos

SPDX-License-Identifier: CC-BY-NC-SA-4.0
-->

<svg
   width="40"
   height="40"
   viewBox="0 0 40 40"
   version="1.1"
   id="svg4"
   xmlns="http://www.w3.org/2000/svg"
   xmlns:svg="http://www.w3.org/2000/svg">
  <defs
     id="defs8" />
  <path
     style="stroke-width:0.078125"
     d="M 9.8046875,27.745269 C 9.6757813,27.665644 9.5060914,27.52819 9.4275984,27.439816 9.3491055,27.351441 8.657132,25.720431 7.8898797,23.815348 L 6.4948748,20.351562 3.2474374,20.331174 0,20.310786 v -1.291648 -1.291649 l 3.8476563,0.02297 c 4.2008273,0.02508 4.124189,0.01681 4.4927023,0.485294 0.083066,0.105602 0.530325,1.134624 0.9939078,2.286717 0.463582,1.152092 0.8821216,2.171499 0.9300866,2.265348 0.07522,0.147166 0.311909,-0.459912 1.720999,-4.414063 2.17264,-6.096808 2.039651,-5.759082 2.365731,-6.007795 0.394424,-0.300842 1.053204,-0.341453 1.422983,-0.08772 0.14644,0.100482 0.329544,0.270586 0.406898,0.378008 0.07735,0.107422 0.951591,2.408115 1.942751,5.112651 0.991158,2.704536 1.814905,4.930136 1.830548,4.945778 0.01564,0.01564 0.09878,-0.175676 0.184751,-0.425151 1.768011,-5.13049 3.319902,-9.515212 3.423924,-9.673968 0.273606,-0.417575 1.102947,-0.64298 1.539854,-0.418514 0.476521,0.244818 0.586034,0.464627 2.764406,5.548616 1.194064,2.786761 2.189705,5.066838 2.212536,5.066838 0.02283,0 0.338643,-0.955898 0.701803,-2.124218 0.363159,-1.16832 0.731506,-2.229896 0.818548,-2.359058 0.08704,-0.129161 0.281186,-0.307052 0.431431,-0.395312 0.264028,-0.155103 0.401958,-0.161243 4.120828,-0.183449 L 40,17.727489 v 1.292506 1.292505 h -3.19977 -3.199771 l -0.388987,1.230469 c -0.213942,0.676758 -0.694671,2.214843 -1.068285,3.417968 -0.433867,1.397154 -0.749885,2.282233 -0.874666,2.449697 -0.487603,0.654392 -1.568162,0.630667 -2.018859,-0.04433 -0.12436,-0.186251 -3.150054,-7.151412 -4.386126,-10.096882 -0.08515,-0.202911 -0.128732,-0.241578 -0.176102,-0.15625 -0.03462,0.06236 -0.843722,2.361993 -1.798,5.110288 -0.954279,2.748295 -1.792639,5.075017 -1.863025,5.170493 -0.202047,0.274079 -0.662052,0.49667 -1.026409,0.49667 -0.362897,0 -0.824359,-0.222439 -1.023937,-0.493569 -0.06902,-0.09377 -0.947914,-2.411704 -1.953086,-5.150962 -1.005174,-2.739258 -1.845222,-4.980469 -1.866775,-4.980469 -0.02155,0 -0.825081,2.206055 -1.785618,4.902344 -0.960537,2.696289 -1.827478,5.028685 -1.926536,5.183102 -0.327132,0.509955 -1.136778,0.704641 -1.6393605,0.394198 z"
     id="path861" />
</svg>
