<svg xmlns="http://www.w3.org/2000/svg" width="29" height="29.5" viewBox="0 0 29 29.5">
  <defs>
    <style>
      .cls-1 {
        fill: #222;
      }
    </style>
  </defs>
  <g id="Group_35" data-name="Group 35" transform="translate(-52.25 -773.75)">
    <path id="Line_30" data-name="Line 30" class="cls-1" d="M1.25,18.25h-2.5V-1.25h2.5Z" transform="translate(60 780)"/>
    <path id="Line_31" data-name="Line 31" class="cls-1" d="M1.25,18.25h-2.5V-1.25h2.5Z" transform="translate(66 780)"/>
    <path id="Line_32" data-name="Line 32" class="cls-1" d="M1.25,13.25h-2.5V-1.25h2.5Z" transform="translate(80 780) rotate(90)"/>
    <path id="Line_33" data-name="Line 33" class="cls-1" d="M1.25,13.25h-2.5V-1.25h2.5Z" transform="translate(80 797) rotate(90)"/>
    <path id="Line_34" data-name="Line 34" class="cls-1" d="M1.25,6.25h-2.5v-7.5h2.5Z" transform="translate(80 797)"/>
    <path id="Line_35" data-name="Line 35" class="cls-1" d="M1.25,6.25h-2.5v-7.5h2.5Z" transform="translate(80 775)"/>
    <path id="Polygon_2" data-name="Polygon 2" d="M6,0l6,9H0Z" transform="translate(80 782.5) rotate(90)"/>
    <path id="Line_36" data-name="Line 36" class="cls-1" d="M1.25,6.25h-2.5v-7.5h2.5Z" transform="translate(58.5 788.5) rotate(90)"/>
    <path id="Line_37" data-name="Line 37" class="cls-1" d="M1.25,13.25h-2.5V-1.25h2.5Z" transform="translate(80 788.5) rotate(90)"/>
  </g>
</svg>
