<?xml version="1.0" encoding="UTF-8" standalone="no"?>
<svg
   width="37"
   height="37"
   viewBox="0 0 37 37"
   version="1.1"
   id="svg4"
   sodipodi:docname="inductor.svg"
   inkscape:version="1.1.2 (0a00cf5339, 2022-02-04, custom)"
   xmlns:inkscape="http://www.inkscape.org/namespaces/inkscape"
   xmlns:sodipodi="http://sodipodi.sourceforge.net/DTD/sodipodi-0.dtd"
   xmlns="http://www.w3.org/2000/svg"
   xmlns:svg="http://www.w3.org/2000/svg">
  <defs
     id="defs8" />
  <sodipodi:namedview
     id="namedview6"
     pagecolor="#ffffff"
     bordercolor="#666666"
     borderopacity="1.0"
     inkscape:pageshadow="2"
     inkscape:pageopacity="0.0"
     inkscape:pagecheckerboard="0"
     showgrid="false"
     inkscape:zoom="23.594595"
     inkscape:cx="18.478809"
     inkscape:cy="18.478809"
     inkscape:window-width="3440"
     inkscape:window-height="1371"
     inkscape:window-x="1920"
     inkscape:window-y="32"
     inkscape:window-maximized="1"
     inkscape:current-layer="svg4" />
  <path
     style="stroke-width:0.0722656"
     d="m 34.776705,21.318359 c -2.025823,0 -2.245454,-0.01188 -2.472772,-0.133795 -0.356422,-0.191151 -0.494489,-0.411851 -0.652026,-1.042264 -0.07629,-0.305299 -0.185936,-0.645245 -0.24365,-0.755433 -0.38011,-0.725712 -1.22965,-1.260792 -2.077834,-1.308719 -1.14891,-0.06492 -2.115624,0.598025 -2.530248,1.735168 -0.250797,0.687836 -0.750866,1.009931 -1.403533,0.904017 -0.389144,-0.06315 -0.68111,-0.317715 -0.87794,-0.765479 -0.325164,-0.739704 -0.415697,-0.883119 -0.763746,-1.209866 -0.441205,-0.414201 -0.901281,-0.616174 -1.501396,-0.659112 -1.146558,-0.08204 -2.087722,0.527491 -2.545372,1.648461 -0.209557,0.51329 -0.323047,0.66716 -0.630063,0.854237 -0.486776,0.296612 -1.346232,0.09747 -1.567827,-0.363277 -0.04459,-0.09272 -0.178397,-0.384881 -0.297342,-0.649243 -0.262587,-0.583617 -0.685975,-1.023369 -1.23156,-1.279158 -0.347019,-0.162695 -0.505571,-0.191302 -1.058544,-0.190992 -0.77681,4.34e-4 -1.148218,0.141908 -1.677808,0.639084 -0.348049,0.326747 -0.438582,0.470162 -0.763746,1.209866 -0.19683,0.447764 -0.488796,0.70233 -0.87794,0.765479 -0.619261,0.100493 -1.169122,-0.22861 -1.370777,-0.820436 C 9.9753163,19.141869 9.572666,18.671434 8.8679374,18.302522 8.5396491,18.130669 8.4074464,18.105134 7.8397378,18.103926 c -0.5920506,-0.0013 -0.6955906,0.02031 -1.1351504,0.236511 -0.4770863,0.234657 -0.8920181,0.624826 -1.1128445,1.04643 -0.057714,0.110188 -0.1673566,0.450134 -0.2436496,0.755433 -0.1575372,0.630413 -0.2956042,0.851113 -0.6520258,1.042264 -0.2273181,0.121912 -0.4469493,0.133795 -2.472772,0.133795 H 0 v -1.192382 -1.192383 h 1.5845462 1.5845461 l 0.1861616,-0.406631 c 0.5541643,-1.210454 1.5056426,-2.08213 2.8156819,-2.579525 0.5549514,-0.210704 0.6412504,-0.222567 1.6337517,-0.224589 1.0052004,-0.002 1.0721863,0.0072 1.6457159,0.22682 0.6169126,0.236251 1.4397136,0.736733 1.7429416,1.060173 l 0.172837,0.184358 0.341687,-0.304619 c 0.843727,-0.752198 1.813117,-1.140941 2.972427,-1.191997 1.290332,-0.05683 2.43421,0.315294 3.385598,1.101387 0.218322,0.18039 0.413669,0.327982 0.434106,0.327982 0.02044,0 0.215784,-0.147592 0.434106,-0.327982 0.953837,-0.788116 2.098458,-1.159675 3.385598,-1.099009 1.168497,0.05507 2.132657,0.440948 2.972427,1.189619 l 0.341687,0.304619 0.172837,-0.184358 c 0.303228,-0.32344 1.126029,-0.823922 1.742942,-1.060173 0.573529,-0.219636 0.640515,-0.228869 1.645715,-0.22682 0.992502,0.002 1.078801,0.01389 1.633752,0.224589 1.310039,0.497395 2.261517,1.369071 2.815682,2.579525 l 0.186161,0.406631 H 35.415454 37 v 1.192383 1.192382 z"
     id="path843" />
</svg>
