<?xml version="1.0" encoding="UTF-8" standalone="no"?>
<svg
   width="34"
   height="34"
   viewBox="0 0 34 34"
   version="1.1"
   id="svg10"
   sodipodi:docname="Crnt Src.svg"
   inkscape:version="1.1.2 (0a00cf5339, 2022-02-04, custom)"
   xmlns:inkscape="http://www.inkscape.org/namespaces/inkscape"
   xmlns:sodipodi="http://sodipodi.sourceforge.net/DTD/sodipodi-0.dtd"
   xmlns="http://www.w3.org/2000/svg"
   xmlns:svg="http://www.w3.org/2000/svg">
  <defs
     id="defs14" />
  <sodipodi:namedview
     id="namedview12"
     pagecolor="#ffffff"
     bordercolor="#666666"
     borderopacity="1.0"
     inkscape:pageshadow="2"
     inkscape:pageopacity="0.0"
     inkscape:pagecheckerboard="0"
     showgrid="false"
     inkscape:zoom="25.676471"
     inkscape:cx="7.0882015"
     inkscape:cy="20.09622"
     inkscape:window-width="3440"
     inkscape:window-height="1371"
     inkscape:window-x="1920"
     inkscape:window-y="32"
     inkscape:window-maximized="1"
     inkscape:current-layer="g8" />
  <g
     transform="translate(1.5 1.5)"
     id="g8">
    <g
       id="circle2">
      <path
         style="fill:none;stroke-width:3;"
         d="M 31,15.5 A 15.5,15.5 0 0 1 15.5,31 15.5,15.5 0 0 1 0,15.5 15.5,15.5 0 0 1 15.5,0 15.5,15.5 0 0 1 31,15.5 Z"
         id="path922" />
      <path
         d="m 15.5,-1.5 c -9.3710644,0 -17,7.6289356 -17,17 0,9.371064 7.6289356,17 17,17 9.371064,0 17,-7.628936 17,-17 0,-9.3710644 -7.628936,-17 -17,-17 z m 0,3 c 7.749746,0 14,6.2502543 14,14 0,7.749746 -6.250254,14 -14,14 -7.7497457,0 -14,-6.250254 -14,-14 0,-7.7497457 6.2502543,-14 14,-14 z"
         id="path924" />
    </g>
    <path
       d="M 16.993489,22.25 H 16.842076 L 16.074478,21.482402 15.30688,20.714804 17.90344,18.107402 20.5,15.5 17.897669,12.886803 15.295337,10.273606 16.153714,9.4512289 17.012091,8.6288517 20.446183,12.062943 23.880275,15.497035 20.512589,18.873517 17.144903,22.25 Z"
       id="path1846" />
    <path
       d="m 0,-1.25 v 2.5 h 12 v -2.5 z"
       id="line6"
       transform="translate(8.5 15.5)" />
  </g>
</svg>
