<svg xmlns="http://www.w3.org/2000/svg" width="46" height="43" viewBox="0 0 46 43">
  <defs>
    <style>
      .cls-1 {
        fill: #0e1a32;
      }

      .cls-2 {
        fill: #fff;
      }
    </style>
  </defs>
  <g id="Tetris_Icon" data-name="Tetris Icon" transform="translate(-2317 -392)">
    <path id="Rectangle_81" data-name="Rectangle 81" class="cls-1" d="M3,0H22a3,3,0,0,1,3,3V23a0,0,0,0,1,0,0H0a0,0,0,0,1,0,0V3A3,3,0,0,1,3,0Z" transform="translate(2317 392)"/>
    <path id="Rectangle_81_-_Outline" data-name="Rectangle 81 - Outline" class="cls-2" d="M4,4V19H21V4H4M3,0H22a3,3,0,0,1,3,3V23H0V3A3,3,0,0,1,3,0Z" transform="translate(2317 392)"/>
    <path id="Rectangle_82" data-name="Rectangle 82" class="cls-1" d="M0,0H25a0,0,0,0,1,0,0V23a0,0,0,0,1,0,0H3a3,3,0,0,1-3-3V0A0,0,0,0,1,0,0Z" transform="translate(2317 412)"/>
    <path id="Rectangle_82_-_Outline" data-name="Rectangle 82 - Outline" class="cls-2" d="M4,4V19H21V4H4M0,0H25V23H3a3,3,0,0,1-3-3Z" transform="translate(2317 412)"/>
    <path id="Rectangle_83" data-name="Rectangle 83" class="cls-1" d="M0,0H22a3,3,0,0,1,3,3V20a3,3,0,0,1-3,3H0a0,0,0,0,1,0,0V0A0,0,0,0,1,0,0Z" transform="translate(2338 412)"/>
    <path id="Rectangle_83_-_Outline" data-name="Rectangle 83 - Outline" class="cls-2" d="M4,4V19H21V4H4M0,0H22a3,3,0,0,1,3,3V20a3,3,0,0,1-3,3H0Z" transform="translate(2338 412)"/>
  </g>
</svg>
