<svg id="Control_Btn" data-name="Control Btn" xmlns="http://www.w3.org/2000/svg" width="64" height="60" viewBox="0 0 64 60">
  <defs>
    <style>
      .cls-1 {
        fill: #fff;
      }

      .cls-2 {
        opacity: 0.85;
      }

      .cls-3 {
        fill: #222;
        stroke: #000;
        stroke-width: 0.2px;
      }
    </style>
  </defs>
  <g id="Default_State" data-name="Default State" transform="translate(-2355 -22)">
    <rect id="Rectangle_146" data-name="Rectangle 146" class="cls-1" width="64" height="60" rx="5" transform="translate(2355 22)"/>
    <g id="Version_Control" data-name="Version Control" class="cls-2" transform="translate(2370 35)">
      <g id="Time_Circle" data-name="Time Circle">
        <path id="Combined_Shape" data-name="Combined Shape" class="cls-3" d="M0,17A17,17,0,1,1,17,34,17.019,17.019,0,0,1,0,17Zm2.551,0A14.45,14.45,0,1,0,17,2.551,14.467,14.467,0,0,0,2.551,17Zm19.63,6.1-6.409-3.824a1.282,1.282,0,0,1-.623-1.1V9.937a1.275,1.275,0,0,1,2.551,0v7.517l5.788,3.452A1.276,1.276,0,0,1,22.181,23.1Z"/>
      </g>
    </g>
  </g>
</svg>
